<?xml version="1.0" encoding="utf-8"?>
<!-- Generator: Adobe Illustrator 27.0.1, SVG Export Plug-In . SVG Version: 6.00 Build 0)  -->
<svg version="1.1" id="Layer_1" xmlns="http://www.w3.org/2000/svg" xmlns:xlink="http://www.w3.org/1999/xlink" x="0px" y="0px"
	 viewBox="0 0 39 40" style="enable-background:new 0 0 39 40;" xml:space="preserve">
<style type="text/css">
	.st0{fill:#F07E26;}
	.st1{fill:#FFFFFF;}
</style>
<g>
	<g>
		<path class="st0" d="M38.8,17.6c0.1-2.1,0-4.3-0.4-6.4c-0.2-1.5-1.2-3.3-3-5C33.6,4.5,30.7,3,27,1.8c-0.6-0.2-1.3-0.4-1.9-0.6
			c-0.1,0-0.2-0.1-0.3-0.1c-0.4-0.2-4.6-1-6-1.2c-1.5-0.2-3-0.1-4.5,0.2c-1.5,0.3-2.9,1.1-4.2,1.8C8.8,2.6,7.7,3.5,6.5,4.6
			C4,7,2.2,9.8,1.1,13.1C0.1,16.5-0.1,20,0.5,23.9c0.6,3.1,1.6,5.7,3,7.9c2,3.1,6.6,5.7,13.9,7.9c1.8,0.6,3.6,0.7,5.4,0.5
			c1.8-0.3,3.4-0.8,4.9-1.6c1.5-0.8,2.9-1.8,4.1-3.1c1.2-1.3,2.2-2.7,3-4.3c1-2,1.8-4.1,2.5-6.3C38.2,22.2,38.7,19.8,38.8,17.6"/>
	</g>
	<g>
		<path class="st1" d="M21.8,6c-0.3,0.8-0.5,3.1-0.6,6.8c0,1.2,0,2.3-0.1,3.5c0,1.1-0.1,2.3-0.1,3.5C21,21,21,22,21.1,22.8
			c0.2,2.5,0.3,4.1,0.2,4.7c0,0,0.4,0,1.1-0.1c0.4,0,0.7-0.1,1-0.1s0.6-0.1,0.8-0.1c0.2,0,0.4,0,0.8-0.1s0.6-0.1,0.7,0
			c0.1,0.4,0.2,0.8,0.3,1.1c0.1,0.3,0.1,0.7,0.1,1.2c0,0.3,0,0.6-0.1,0.9c-0.1,0.4-0.2,0.6-0.2,0.8c-0.3,0.1-0.7,0.1-1.1,0.1
			c-0.4,0-0.8,0-1.3,0c-0.8,0-1.9,0-3.3,0.2c-0.2,0-0.5,0-1,0.1c-0.5,0-1.1,0-2,0c0,0-0.3,0-1,0c-0.7,0-1.8,0-3.2,0.1
			c-0.4,0-0.7,0-0.9,0c-0.2,0-0.4-0.1-0.6-0.4c0-0.2-0.1-0.5-0.1-0.8c0-0.3-0.1-0.6-0.1-1c0-0.3,0-0.6,0-0.9c0-0.3,0.1-0.4,0.1-0.5
			c0.2-0.1,0.4-0.1,0.7-0.2s0.6,0,1.1,0c1.7,0.2,2.5,0.3,2.4,0.3c0.6,0,0.9-0.3,1.1-0.8c0.1-0.2,0.2-0.7,0.2-1.5
			c0-0.3,0.1-0.7,0.1-1.2c0-0.5,0.1-1,0.1-1.6c0.1-1,0.1-1.9,0.1-2.9s0-2-0.1-3c0-0.5-0.1-1-0.1-1.7c0-0.6-0.1-1.2-0.1-1.7
			c-0.2-0.2-0.4-0.3-0.5-0.3c-0.1-0.1-0.4-0.1-0.8-0.1c-0.5,0-1,0-1.6,0.1c-0.6,0-1.3,0-2.1,0l-0.6-0.1c-0.2-0.1-0.3-0.2-0.3-0.4
			c0-0.3,0-0.7,0-1c0-0.4,0-0.7,0.1-1c0.1,0,0.2,0,0.4,0c0.1,0,0.3,0,0.4,0s0.3,0,0.4,0c0.3,0,0.6,0,0.9-0.1c0.3,0,0.5-0.1,0.7-0.1
			c0.3,0,0.6-0.1,0.9-0.2c0.3-0.1,0.5-0.1,0.7-0.2c0.3-0.2,0.9-1,1.8-2.5c0.1-0.2,0.2-0.4,0.3-0.6c0-0.2,0.1-0.4,0.2-0.6l0.2-0.5
			c0.2-0.1,0.6-0.2,1-0.3c0.5-0.1,0.8-0.1,1-0.1C20.4,5.6,21.1,5.7,21.8,6z"/>
	</g>
</g>
</svg>
