<?xml version="1.0" encoding="utf-8"?>
<!-- Generator: Adobe Illustrator 27.0.1, SVG Export Plug-In . SVG Version: 6.00 Build 0)  -->
<svg version="1.1" id="Layer_1" xmlns="http://www.w3.org/2000/svg" xmlns:xlink="http://www.w3.org/1999/xlink" x="0px" y="0px"
	 viewBox="0 0 39 40" style="enable-background:new 0 0 39 40;" xml:space="preserve">
<style type="text/css">
	.st0{fill:#F07E26;}
	.st1{fill:#FFFFFF;}
</style>
<g>
	<g>
		<path class="st0" d="M38.8,17.6c0.1-2.1,0-4.3-0.4-6.4c-0.2-1.5-1.2-3.3-3-5C33.6,4.5,30.7,3,27,1.8c-0.6-0.2-1.3-0.4-1.9-0.6
			c-0.1,0-0.2-0.1-0.3-0.1c-0.4-0.2-4.6-1-6-1.2c-1.5-0.2-3-0.1-4.5,0.2c-1.5,0.3-2.9,1.1-4.2,1.8C8.8,2.6,7.7,3.5,6.5,4.6
			C4,7,2.2,9.8,1.1,13.1C0.1,16.5-0.1,20,0.5,23.9c0.6,3.1,1.6,5.7,3,7.9c2,3.1,6.6,5.7,13.9,7.9c1.8,0.6,3.6,0.7,5.4,0.5
			c1.8-0.3,3.4-0.8,4.9-1.6c1.5-0.8,2.9-1.8,4.1-3.1c1.2-1.3,2.2-2.7,3-4.3c1-2,1.8-4.1,2.5-6.3C38.2,22.2,38.7,19.8,38.8,17.6"/>
	</g>
	<g>
		<path class="st1" d="M12.8,26.3c0.2,0.2,0.6,0.3,1.1,0.3H15c0.3,0,0.7,0,1.1,0c0.5,0,1,0,1.6,0.1c0.8,0.3,1.6,0.4,2.4,0.4
			c0.1,0,0.4,0,0.8,0c0.4,0,1-0.1,1.7-0.2c0.3,0,0.6,0,0.8,0c0.2,0,0.4-0.1,0.6-0.2c0.1-0.3,0.1-0.6,0.2-0.9c0.1-0.2,0.1-0.6,0.1-1
			c0-0.1,0-0.4,0-0.8s0-0.8-0.1-1C24.7,23,25,23,25.3,23c0.3,0,0.7,0,1.1,0c0.1,0,0.3,0,0.5,0.1c0.3,0,0.4,0,0.5,0.1
			c0.1,0,0.2,0,0.3,0.1c0,0.2,0,0.4-0.1,0.7c0,0.2-0.1,0.4-0.1,0.7c0,0.2-0.1,0.5-0.1,0.8c-0.1,0.4-0.1,0.9-0.1,1.4
			c0,0.5,0,1-0.1,1.6c0,0.6,0,1.1-0.1,1.6c0,0.5-0.1,1-0.1,1.5c-0.8,0.1-1.4,0.2-1.9,0.2s-0.9,0-1.3,0c-0.3,0-0.6,0-0.9-0.1
			c-0.2,0-0.5,0-0.8,0c-0.4,0-0.8,0-1.3-0.1c-0.6-0.1-1.2-0.2-1.6-0.3c-0.4-0.1-0.7-0.2-1-0.3c-0.4-0.1-0.7-0.1-1.1-0.1
			c-0.3,0.1-0.7,0.1-1.1,0.1c-1,0-1.7-0.1-2.2,0c-0.5,0-1,0.1-1.4,0.1c-0.4,0-0.8,0.1-1.2,0.1S10.4,31,9.8,31
			c-0.3,0-0.5-0.3-0.7-0.8c-0.2-0.5-0.3-0.9-0.3-1.2c0-0.4,0.1-0.9,0.3-1.5c0.3-0.8,0.4-1.3,0.4-1.6c0.3-1.5,1.1-3,2.6-4.5
			c0.5-0.5,1.1-1,1.7-1.4c0.6-0.4,1.3-0.9,1.9-1.2l3.7-1.6c1.5-0.8,2.3-1.8,2.4-2.9c0.1-0.8,0.2-1.4,0.2-1.8c0-0.4,0.1-0.5,0.1-0.4
			c0-0.6-0.2-1.2-0.7-1.6c-0.7-0.7-1.1-1.2-1.4-1.4c-0.6-0.4-1.3-0.6-2-0.5l-2.3,0.3c-0.4,0.1-0.8,0.2-1.2,0.3
			c-0.4,0.1-0.7,0.3-1,0.4c-0.4,0.2-0.6,0.5-0.6,0.7s0.4,0.8,1.1,1.6c0.7,0.8,1.1,1.4,1,2c-0.4,2.1-1.3,3.1-2.9,3.1
			c-1.4,0-2.5-0.8-3.4-2.4c-0.1-0.5-0.1-1-0.1-1.6c0-2.5,1-4.5,3-5.8C13.4,6,15.5,5.4,18,5.4c2.2,0,4.1,0.5,5.7,1.4
			c1.8,1.1,2.9,2.5,3.2,4.4c0.1,0.7,0.2,1.3,0.2,1.8c0,2.5-1.2,4.6-3.7,6.2c-0.4,0.3-1.7,1-3.8,2.2c-2.5,1.3-4,2.1-4.7,2.3
			c-0.5,0.3-1,0.7-1.4,1.1C13.3,25.1,13,25.6,12.8,26.3z"/>
	</g>
</g>
</svg>
